<svg width="48" height="32" viewBox="0 0 48 32" fill="none" xmlns="http://www.w3.org/2000/svg">
<path d="M0 5.33333C0 2.3875 2.3875 0 5.33333 0H42.6667C45.6083 0 48 2.3875 48 5.33333V26.6667C48 29.6083 45.6083 32 42.6667 32H5.33333C2.3875 32 0 29.6083 0 26.6667V5.33333ZM4 9.33333V22.6667C6.94583 22.6667 9.33333 25.0583 9.33333 28H38.6667C38.6667 25.0583 41.0583 22.6667 44 22.6667V9.33333C41.0583 9.33333 38.6667 6.94167 38.6667 4H9.33333C9.33333 6.94167 6.94583 9.33333 4 9.33333Z" fill="#4465EA"/>
<path d="M24.0002 7.40747C19.0989 7.40747 15.1113 11.395 15.1113 16.2964C15.1113 21.1977 19.0989 25.1852 24.0002 25.1852C28.9016 25.1852 32.8891 21.1977 32.8891 16.2964C32.8891 11.395 28.9016 7.40747 24.0002 7.40747ZM24.0002 23.4075C20.0793 23.4075 16.8891 20.2172 16.8891 16.2964C16.8891 12.3755 20.0793 9.18525 24.0002 9.18525C27.9211 9.18525 31.1113 12.3755 31.1113 16.2964C31.1113 20.2172 27.9211 23.4075 24.0002 23.4075Z" fill="#4465EA"/>
<path d="M24.8891 11.8519H23.1113V17.1852H28.4447V15.4074H24.8891V11.8519Z" fill="#4465EA"/>
</svg>
