<svg width="36" height="36" viewBox="0 0 36 36" fill="none" xmlns="http://www.w3.org/2000/svg">
<path fill-rule="evenodd" clip-rule="evenodd" d="M17.9528 20H18.0328C23.5558 20 28.0328 15.523 28.0328 10C28.0328 4.477 23.5558 0 18.0328 0H17.9528C12.4668 0.043 8.03283 4.504 8.03283 10C8.03283 15.496 12.4668 19.957 17.9528 20ZM25.9708 11H23.9708C23.9168 11.913 23.7888 12.79 23.5968 13.615H25.1708C25.5866 12.7961 25.8573 11.9113 25.9708 11ZM23.7308 15.615H22.9658C22.8188 15.978 22.6558 16.323 22.4818 16.65C22.9323 16.348 23.3511 16.0013 23.7318 15.615H23.7308ZM21.5338 13.615C21.7518 12.818 21.9038 11.939 21.9668 11H19.0328V13.615H21.5338ZM19.0328 15.615H20.7668C20.6898 15.763 20.6108 15.905 20.5288 16.042C20.0288 16.873 19.5118 17.387 19.0328 17.678V15.615ZM17.0328 13.615V11H14.0348C14.0978 11.939 14.2498 12.818 14.4678 13.615H17.0328ZM15.2348 15.615H17.0328V17.715C16.5368 17.432 15.9948 16.911 15.4728 16.042C15.3891 15.9022 15.3097 15.7598 15.2348 15.615ZM12.4048 13.615C12.2069 12.7554 12.0818 11.8806 12.0308 11H10.0948C10.2108 11.93 10.4868 12.812 10.8948 13.615H12.4048ZM12.3348 15.615H13.0348C13.1728 15.953 13.3228 16.275 13.4838 16.581C13.0712 16.2955 12.6872 15.9721 12.3348 15.615ZM23.9708 9C23.92 8.11936 23.7949 7.24458 23.5968 6.385H25.1708C25.5869 7.20376 25.8576 8.08858 25.9708 9H23.9708ZM23.7308 4.385H22.9658C22.8188 4.022 22.6558 3.677 22.4818 3.35C22.9328 3.653 23.3518 4 23.7318 4.385H23.7308ZM19.0328 4.385H20.7668C20.6919 4.24025 20.6125 4.09784 20.5288 3.958C20.0288 3.126 19.5118 2.613 19.0328 2.322V4.385ZM21.5338 6.385H19.0328V9H21.9668C21.9095 8.11614 21.7645 7.24016 21.5338 6.385ZM17.0328 2.285V4.385H15.2348C15.3118 4.237 15.3918 4.095 15.4728 3.958C15.9938 3.089 16.5368 2.569 17.0328 2.285ZM17.0328 6.385H14.4678C14.2498 7.182 14.0978 8.061 14.0348 9H17.0328V6.385ZM13.4828 3.419C13.3228 3.725 13.1728 4.047 13.0358 4.385H12.3348C12.6858 4.028 13.0698 3.705 13.4828 3.419ZM12.4048 6.385H10.8948C10.479 7.20389 10.2084 8.08865 10.0948 9H12.0308C12.0848 8.086 12.2128 7.21 12.4048 6.385ZM2.73082 11C1.69282 10.976 0.650826 11.613 0.313826 12.605C0.229826 12.853 0.183826 13.177 0.150826 13.472C0.115826 13.794 0.0888254 14.181 0.0678254 14.602C0.0244802 15.5661 0.00214167 16.531 0.000825471 17.496C-0.00717453 19.514 0.0438256 21.614 0.116826 22.265C0.244826 23.405 0.900825 24.467 1.47083 25.391L1.53483 25.494C1.70783 25.774 1.87882 26.053 2.04682 26.34C2.80082 27.631 3.62083 28.501 4.36383 29.29L4.38083 29.307C4.79883 29.75 5.18583 30.162 5.55083 30.621C5.19674 30.9927 4.99972 31.4867 5.00083 32V34C5.00083 34.5304 5.21154 35.0391 5.58661 35.4142C5.96169 35.7893 6.47039 36 7.00083 36H15.0008C15.5313 36 16.04 35.7893 16.415 35.4142C16.7901 35.0391 17.0008 34.5304 17.0008 34V32C17.0008 31.4938 16.8088 31.0065 16.4637 30.6362C16.1185 30.266 15.6458 30.0404 15.1408 30.005C15.0058 28.869 14.8308 27.335 14.8148 26.898C14.8008 26.522 14.6748 26.155 14.5568 25.876C14.433 25.5884 14.2907 25.3092 14.1308 25.04C13.9665 24.7603 13.7903 24.4877 13.6028 24.223L13.5638 24.169L13.5538 24.154L13.5498 24.149L13.5478 24.146L13.5378 24.132L10.2938 20.042L10.2638 20.012V20.01L10.2598 20.006L10.2358 19.98C10.0867 19.815 9.94327 19.6449 9.80583 19.47C9.49982 19.0878 9.23313 18.6757 9.00983 18.24C8.78183 17.772 8.34982 17.323 7.68683 17.29C7.12183 17.26 6.67883 17.56 6.42083 17.791C6.27873 17.9191 6.14915 18.0604 6.03383 18.213L5.98883 17.611L5.98383 17.545C5.88583 16.227 5.76683 14.632 5.37983 13.355C4.92583 11.861 3.91683 11.029 2.72983 11.001L2.73082 11ZM13.1258 30C12.9958 28.9 12.8338 27.463 12.8158 26.971C12.8122 26.9415 12.8058 26.9123 12.7968 26.884C12.774 26.8047 12.7463 26.7269 12.7138 26.651C12.6237 26.4446 12.5204 26.2442 12.4048 26.051C12.27 25.8216 12.1256 25.5981 11.9718 25.381L11.9458 25.344L8.77783 21.35L8.75983 21.33C8.57695 21.1275 8.40118 20.9187 8.23283 20.704C7.96334 20.3624 7.71584 20.004 7.49183 19.631L7.48483 19.642C7.39483 19.809 7.34483 19.962 7.32983 20.062C7.27483 20.416 7.30283 20.66 7.33083 20.792C7.33926 20.8342 7.35096 20.8756 7.36583 20.916V20.919L9.19783 24.557L7.49683 25.596L7.47183 25.562L7.40283 25.467C7.04583 24.9746 6.69249 24.4796 6.34283 23.982C5.73583 23.118 5.00983 22.058 4.65183 21.422C4.38383 20.947 4.25983 20.318 4.18083 19.749C4.09933 19.095 4.03764 18.4387 3.99583 17.781L3.99383 17.759C3.88983 16.361 3.78183 14.979 3.46583 13.936C3.32783 13.481 3.14983 13.252 3.02183 13.141C2.92984 13.0549 2.80973 13.0052 2.68383 13.001C2.41083 12.994 2.22983 13.183 2.20683 13.251C2.20483 13.257 2.19583 13.291 2.18283 13.365C2.16477 13.4722 2.1501 13.5799 2.13882 13.688C2.10982 13.956 2.08483 14.3 2.06483 14.702C2.02354 15.6354 2.00253 16.5697 2.00183 17.504C1.99283 19.543 2.04782 21.526 2.10582 22.042C2.17782 22.687 2.57983 23.376 3.23783 24.444L3.24083 24.449C3.41083 24.725 3.59383 25.022 3.77483 25.332C4.40783 26.416 5.08983 27.143 5.83683 27.935L5.85383 27.953C6.40983 28.543 7.01383 29.183 7.58383 30H13.1258ZM7.80083 19.246C7.80083 19.246 7.79682 19.247 7.78982 19.253C7.79377 19.2511 7.79746 19.2488 7.80083 19.246ZM15.0008 34V32H7.00083V34H15.0008ZM35.6878 12.605C35.3498 11.613 34.3088 10.976 33.2708 11.001C32.0848 11.029 31.0758 11.861 30.6218 13.355C30.2348 14.632 30.1158 16.227 30.0178 17.545L30.0128 17.611L29.9678 18.213C29.8478 18.056 29.7178 17.913 29.5808 17.791C29.3228 17.561 28.8808 17.261 28.3148 17.289C27.6518 17.323 27.2198 17.772 26.9918 18.239C26.7681 18.6747 26.5011 19.0868 26.1948 19.469C26.0575 19.6443 25.914 19.8147 25.7648 19.98L25.7418 20.006L25.7378 20.011L25.7078 20.042L22.4648 24.132L22.4538 24.146L22.4518 24.149L22.4488 24.154L22.4378 24.169C22.2356 24.4502 22.0464 24.7405 21.8708 25.039C21.7106 25.3085 21.568 25.5881 21.4438 25.876C21.3268 26.155 21.2008 26.522 21.1868 26.898C21.1708 27.335 20.9968 28.869 20.8608 30.005C20.3559 30.0404 19.8832 30.266 19.538 30.6362C19.1928 31.0065 19.0008 31.4938 19.0008 32V34C19.0008 34.5304 19.2115 35.0391 19.5866 35.4142C19.9617 35.7893 20.4704 36 21.0008 36H29.0008C29.5313 36 30.04 35.7893 30.415 35.4142C30.7901 35.0391 31.0008 34.5304 31.0008 34V32C31.0012 31.4863 30.8039 30.9922 30.4498 30.62C30.8158 30.162 31.2018 29.75 31.6198 29.307L31.6368 29.289C32.3798 28.501 33.1998 27.631 33.9538 26.34C34.1218 26.053 34.2938 25.775 34.4658 25.494L34.5298 25.391C35.0998 24.467 35.7558 23.405 35.8838 22.265C35.9568 21.614 36.0078 19.514 35.9998 17.496C35.9988 16.531 35.9768 15.5661 35.9338 14.602C35.9168 14.2246 35.8891 13.8478 35.8508 13.472C35.8188 13.177 35.7728 12.852 35.6878 12.605ZM28.4188 30C28.9888 29.183 29.5918 28.543 30.1488 27.953L30.1648 27.935C30.9118 27.143 31.5948 26.415 32.2268 25.332C32.4068 25.022 32.5898 24.726 32.7608 24.449L32.7638 24.444C33.4228 23.376 33.8238 22.687 33.8958 22.042C33.9538 21.526 34.0078 19.543 33.9998 17.504C33.9958 16.498 33.9768 15.504 33.9368 14.702C33.9168 14.3 33.8918 13.956 33.8628 13.688C33.8515 13.5799 33.8369 13.4722 33.8188 13.365C33.8127 13.3266 33.8047 13.2886 33.7948 13.251C33.7718 13.183 33.5908 12.994 33.3188 13.001C33.1926 13.0049 33.0721 13.0547 32.9798 13.141C32.8518 13.251 32.6738 13.481 32.5358 13.936C32.2198 14.978 32.1118 16.361 32.0078 17.759L32.0058 17.781C31.9558 18.465 31.9038 19.155 31.8208 19.749C31.7428 20.318 31.6178 20.947 31.3508 21.423C30.9918 22.058 30.2658 23.118 29.6588 23.983C29.3091 24.4803 28.9558 24.9749 28.5988 25.467L28.5288 25.562L28.5048 25.596L26.8038 24.556L28.6348 20.919L28.6358 20.916C28.6507 20.8756 28.6624 20.8342 28.6708 20.792C28.6988 20.66 28.7268 20.416 28.6718 20.062C28.6433 19.9145 28.591 19.7726 28.5168 19.642L28.5098 19.631C28.2638 20.046 27.9928 20.418 27.7698 20.703C27.6012 20.9181 27.4251 21.1272 27.2418 21.33L27.2228 21.35L24.0558 25.344L24.0298 25.381C23.8761 25.5982 23.7317 25.8217 23.5968 26.051C23.4768 26.255 23.3668 26.464 23.2878 26.651C23.2488 26.744 23.2218 26.821 23.2048 26.883C23.1959 26.9117 23.1895 26.9412 23.1858 26.971C23.1678 27.463 23.0058 28.901 22.8758 30H28.4188ZM28.2008 19.246C28.2008 19.246 28.2048 19.247 28.2118 19.253C28.2079 19.2511 28.2042 19.2487 28.2008 19.246ZM21.0008 34V32H29.0008V34H21.0008Z" fill="#4A6EE9"/>
</svg>
