<svg width="36" height="38" viewBox="0 0 36 38" fill="none" xmlns="http://www.w3.org/2000/svg">
<path d="M10.5714 30.9523C8.63331 30.9523 7.06522 32.538 7.06522 34.4761C7.06522 36.4141 8.63331 37.9999 10.5714 37.9999C12.5095 37.9999 14.0952 36.4141 14.0952 34.4761C14.0952 32.538 12.5095 30.9523 10.5714 30.9523ZM28.1904 30.9523C26.2523 30.9523 24.6842 32.538 24.6842 34.4761C24.6842 36.4141 26.2523 37.9999 28.1904 37.9999C30.1285 37.9999 31.7142 36.4141 31.7142 34.4761C31.7142 32.538 30.1285 30.9523 28.1904 30.9523ZM12.5095 22.1427H25.6357C26.9571 22.1427 28.1199 21.4204 28.719 20.328L35.5199 7.97707L32.4542 6.28564L25.6357 18.6189H13.2671L5.76142 2.76184H0V6.28564H3.5238L9.86664 19.6585L7.48808 23.9575C6.20189 26.3185 7.89332 29.1904 10.5714 29.1904H31.7142V25.6666H10.5714L12.5095 22.1427Z" fill="#4465EA"/>
<path d="M23.839 5.83101H28.4265C28.482 5.83103 28.5362 5.84685 28.583 5.8766C28.6298 5.90635 28.6671 5.9488 28.6906 5.99899C28.7141 6.04919 28.7228 6.10504 28.7157 6.16001C28.7086 6.21498 28.686 6.26679 28.6505 6.30937L26.3568 9.06285C26.3294 9.09568 26.2951 9.12209 26.2564 9.14021C26.2177 9.15833 26.1755 9.16772 26.1327 9.16772C26.09 9.16772 26.0478 9.15833 26.0091 9.14021C25.9704 9.12209 25.9361 9.09568 25.9087 9.06285L23.6149 6.30937C23.5795 6.26679 23.5569 6.21498 23.5498 6.16001C23.5427 6.10504 23.5514 6.04919 23.5749 5.99899C23.5984 5.9488 23.6357 5.90635 23.6825 5.8766C23.7293 5.84685 23.7835 5.83103 23.839 5.83101ZM11.005 8.16447H15.5925C15.648 8.16445 15.7022 8.14864 15.749 8.11889C15.7957 8.08914 15.8331 8.04668 15.8566 7.99649C15.8801 7.9463 15.8888 7.89044 15.8817 7.83548C15.8746 7.78051 15.852 7.7287 15.8165 7.68611L13.5228 4.93263C13.4954 4.89981 13.4611 4.8734 13.4224 4.85528C13.3837 4.83715 13.3415 4.82776 13.2987 4.82776C13.256 4.82776 13.2138 4.83715 13.1751 4.85528C13.1364 4.8734 13.1021 4.89981 13.0747 4.93263L10.7809 7.68611C10.7455 7.7287 10.7229 7.78051 10.7158 7.83548C10.7087 7.89044 10.7174 7.9463 10.7409 7.99649C10.7644 8.04668 10.8017 8.08914 10.8485 8.11889C10.8953 8.14864 10.9495 8.16445 11.005 8.16447Z" fill="#4465EA"/>
<path fill-rule="evenodd" clip-rule="evenodd" d="M19.716 1.16415C17.9053 1.16415 16.2858 1.98903 15.216 3.28526C15.1682 3.34718 15.1084 3.39887 15.0403 3.43724C14.9721 3.47561 14.897 3.49989 14.8193 3.50863C14.7415 3.51736 14.6629 3.51039 14.5879 3.4881C14.5129 3.46582 14.4432 3.4287 14.3829 3.37893C14.3225 3.32916 14.2728 3.26777 14.2367 3.19841C14.2006 3.12904 14.1788 3.05312 14.1726 2.97516C14.1664 2.89719 14.1759 2.81878 14.2006 2.74458C14.2253 2.67038 14.2647 2.6019 14.3164 2.54322C15.1707 1.50895 16.304 0.741808 17.5817 0.333039C18.8593 -0.0757305 20.2275 -0.108924 21.5235 0.237406C22.8195 0.583736 23.9887 1.29502 24.8921 2.28664C25.7955 3.27827 26.3951 4.50852 26.6196 5.83106H25.433C25.1636 4.5136 24.4475 3.32959 23.4058 2.47922C22.3641 1.62886 21.0607 1.16432 19.716 1.16415ZM13.9991 8.16452C14.2199 9.2433 14.7415 10.2376 15.5035 11.0325C16.2656 11.8274 17.2369 12.3905 18.3054 12.6568C19.3739 12.923 20.4959 12.8815 21.5418 12.5371C22.5877 12.1926 23.5149 11.5593 24.2161 10.7103C24.2639 10.6484 24.3236 10.5967 24.3918 10.5583C24.4599 10.52 24.5351 10.4957 24.6128 10.487C24.6905 10.4782 24.7692 10.4852 24.8442 10.5075C24.9191 10.5298 24.9889 10.5669 25.0492 10.6167C25.1095 10.6664 25.1592 10.7278 25.1954 10.7972C25.2315 10.8665 25.2533 10.9425 25.2595 11.0204C25.2657 11.0984 25.2562 11.1768 25.2315 11.251C25.2067 11.3252 25.1674 11.3937 25.1156 11.4524C24.2614 12.4866 23.128 13.2538 21.8504 13.6625C20.5727 14.0713 19.2045 14.1045 17.9086 13.7582C16.6126 13.4118 15.4434 12.7006 14.5399 11.7089C13.6365 10.7173 13.0369 9.48706 12.8125 8.16452H13.9991Z" fill="#4465EA"/>
</svg>
