<svg width="34" height="35" viewBox="0 0 34 35" fill="none" xmlns="http://www.w3.org/2000/svg">
<path d="M33.8677 19.1667C33.8689 19.7374 33.6878 20.2936 33.3507 20.7542C33.0135 21.2147 32.538 21.5554 31.9936 21.7266C31.4491 21.8978 30.8642 21.8906 30.3242 21.7059C29.7841 21.5212 29.3172 21.1688 28.9916 20.7H27.2896C27.121 21.2827 26.891 21.8194 26.6303 22.356L24.2536 19.9794C24.499 19.2434 24.6676 18.4614 24.6676 17.6334C24.6676 13.4014 21.233 9.96668 17.001 9.96668C16.173 9.96668 15.391 10.1353 14.655 10.3807L12.2783 8.00401C13.275 7.52868 14.333 7.19135 15.4676 7.02268V4.87601C14.9989 4.55041 14.6465 4.08353 14.4618 3.5435C14.2771 3.00346 14.2698 2.41854 14.441 1.87409C14.6123 1.32963 14.953 0.854144 15.4135 0.517004C15.874 0.179864 16.4302 -0.00127919 17.001 6.80013e-06C17.5717 -0.00127919 18.1279 0.179864 18.5884 0.517004C19.049 0.854144 19.3897 1.32963 19.5609 1.87409C19.7321 2.41854 19.7249 3.00346 19.5402 3.5435C19.3555 4.08353 19.0031 4.55041 18.5343 4.87601V7.02268C20.359 7.28335 22.015 7.98868 23.4256 9.04668L25.4803 6.99201C25.327 6.13335 25.5723 5.25934 26.201 4.60001C26.7376 4.09401 27.4276 3.83334 28.1176 3.83334C28.8076 3.83334 29.4977 4.09401 30.0343 4.60001C31.0617 5.67335 31.0617 7.37535 30.0343 8.43335C29.4977 8.93935 28.8076 9.20001 28.1176 9.20001C27.9643 9.20001 27.811 9.20001 27.6423 9.15401L25.5876 11.2087C26.9921 13.0549 27.7468 15.3137 27.7343 17.6334H28.9916C29.3172 17.1646 29.7841 16.8122 30.3242 16.6275C30.8642 16.4428 31.4491 16.4355 31.9936 16.6068C32.538 16.778 33.0135 17.1187 33.3507 17.5792C33.6878 18.0397 33.8689 18.596 33.8677 19.1667ZM32.503 32.1387L30.5557 34.086L29.421 32.9667C28.8076 32.89 28.2096 32.6447 27.7343 32.2C27.2743 31.7247 27.029 31.1267 26.9676 30.5134L22.981 26.5114C22.475 26.8334 21.9383 27.186 21.371 27.4314C21.923 27.876 22.3063 28.5507 22.3676 29.3174C22.475 30.7894 21.371 32.0774 19.8836 32.2H19.6843C18.289 32.2 17.1236 31.1267 17.001 29.716C17.001 29.2254 17.0776 28.7654 17.277 28.3667H17.001C15.575 28.3667 14.2256 28.0907 12.9836 27.6L11.343 30.6207C11.7263 31.372 11.7416 32.292 11.3123 33.0894C11.1454 33.3997 10.9189 33.674 10.6459 33.8967C10.3728 34.1194 10.0586 34.2861 9.72103 34.3872C9.3835 34.4883 9.02935 34.5219 8.67884 34.486C8.32833 34.4501 7.98833 34.3455 7.6783 34.178C7.36814 34.011 7.09394 33.7844 6.87136 33.5114C6.64878 33.2383 6.48218 32.9241 6.38108 32.5866C6.27998 32.2491 6.24636 31.895 6.28214 31.5446C6.31793 31.1941 6.42241 30.8541 6.58963 30.544C7.0343 29.7314 7.80097 29.256 8.6443 29.1334L10.331 26.0667C9.25763 25.1774 8.33763 24.104 7.64763 22.8927L5.3323 23.5214C5.0563 24.3187 4.39696 24.9627 3.52296 25.208C3.27763 25.3 3.04763 25.3 2.81763 25.3C1.66763 25.3 0.548292 24.5334 0.226292 23.322C-0.158575 21.8807 0.686293 20.4087 2.11229 20.0254C2.34229 19.9334 2.58763 19.9334 2.81763 19.9334C3.4463 19.9334 4.05963 20.1634 4.53496 20.562L6.54363 20.0254C6.36518 19.2404 6.27263 18.4383 6.26763 17.6334C5.71563 17.5107 5.17896 17.2807 4.7343 16.8667C3.70696 15.7934 3.70696 14.1067 4.7343 13.0334C5.27096 12.5274 5.96096 12.2667 6.65096 12.2667C6.97296 12.2667 7.29496 12.328 7.60163 12.4507C7.75497 12.1747 7.93897 11.914 8.10763 11.638L0.302959 3.83334L2.26563 1.88601L32.503 32.1387ZM20.7576 24.288L10.3463 13.8767C9.71763 14.996 9.3343 16.2687 9.3343 17.6334C9.3343 21.8654 12.769 25.3 17.001 25.3C18.381 25.3 19.6536 24.9167 20.7576 24.288ZM9.62563 3.45001C9.08897 2.69868 8.26097 2.30001 7.41763 2.30001C7.1723 2.30001 6.92696 2.34601 6.68163 2.40734L9.9783 5.70401C10.193 4.95268 10.101 4.12468 9.62563 3.45001Z" fill="#4A6EE9"/>
</svg>
