<svg width="38" height="38" viewBox="0 0 38 38" fill="none" xmlns="http://www.w3.org/2000/svg">
<path d="M17.6467 17.6785C17.2914 18.0315 17.091 18.5112 17.0894 19.012C17.0878 19.5127 17.2852 19.9937 17.6382 20.3489C17.9912 20.7041 18.4708 20.9046 18.9716 20.9062C19.4724 20.9078 19.9533 20.7104 20.3085 20.3574" stroke="#4465EA" stroke-width="3" stroke-linecap="round" stroke-linejoin="round"/>
<path d="M12.2739 12.3736C10.5167 14.1519 9.53671 16.5545 9.54894 19.0545C9.56117 21.5544 10.5646 23.9474 12.3391 25.7083C14.1135 27.4693 16.5141 28.4544 19.014 28.4476C21.514 28.4407 23.9091 27.4424 25.6739 25.6717M28.2735 20.7425C28.5574 19.2321 28.4682 17.6753 28.0137 16.2072C27.5592 14.7392 26.7531 13.4043 25.6655 12.3185C24.5779 11.2327 23.2416 10.429 21.7727 9.97698C20.3039 9.52499 18.7469 9.43848 17.237 9.72496" stroke="#4465EA" stroke-width="3" stroke-linecap="round" stroke-linejoin="round"/>
<path d="M7.00487 6.96114C3.81096 10.14 2.01067 14.4575 2.00005 18.9637C1.98943 23.47 3.76934 27.7959 6.94823 30.9898C10.1271 34.1837 14.4446 35.984 18.9508 35.9946C23.4571 36.0052 27.783 34.2253 30.9769 31.0464M34.1542 26.6798C35.774 23.488 36.3444 19.8662 35.7841 16.331C35.2238 12.7958 33.5614 9.52789 31.034 6.99339C28.5066 4.45888 25.2433 2.78728 21.7097 2.21703C18.1762 1.64679 14.5527 2.20704 11.3564 3.81785M2.00393 2.00928L35.9854 35.9907" stroke="#4465EA" stroke-width="3" stroke-linecap="round" stroke-linejoin="round"/>
</svg>
